<svg xmlns="http://www.w3.org/2000/svg" version="1.1" xmlns:xlink="http://www.w3.org/1999/xlink" xmlns:svgjs="http://svgjs.com/svgjs" width="1920" height="1080" preserveAspectRatio="none" viewBox="0 0 1920 1080"><g mask="url(&quot;#SvgjsMask4612&quot;)" fill="none"><use xlink:href="#SvgjsG4617" transform="translate(0, 0)" fill="rgba(79, 160, 149, 1)"></use><use xlink:href="#SvgjsG4617" transform="translate(0, 753.9999999999999)" fill="rgba(79, 160, 149, 1)"></use><use xlink:href="#SvgjsG4617" transform="translate(753.9999999999999, 0)" fill="rgba(79, 160, 149, 1)"></use><use xlink:href="#SvgjsG4617" transform="translate(753.9999999999999, 753.9999999999999)" fill="rgba(79, 160, 149, 1)"></use><use xlink:href="#SvgjsG4617" transform="translate(1507.9999999999998, 0)" fill="rgba(79, 160, 149, 1)"></use><use xlink:href="#SvgjsG4617" transform="translate(1507.9999999999998, 753.9999999999999)" fill="rgba(79, 160, 149, 1)"></use></g><defs><mask id="SvgjsMask4612"><rect width="1920" height="1080" fill="#ffffff"></rect></mask><g id="SvgjsG4613"><path d="M-0.009 12.124L8 3.609l8.009 8.515z"></path><path d="M1.843 6.545L8 0l6.157 6.545z m4.761 0.502h2.792v8.955H6.604z"></path></g><g id="SvgjsG4614"><path d="M14.225 3.277L11.437 4.993v2.573h-1.067V4.125h-1.292V1.133h-3.432v4.899h-1.716v-1.683L2.536 3.492 1.142 4.349v3.003H0.07v7.507l15.442-0.001V9.282h-1.287V3.277z" fill-rule="evenodd"></path></g><g id="SvgjsG4615"><path d="M7.288 1.124a0.565 0.565 0 0 1-0.562-0.562C6.726 0.248 6.979-0.004 7.288 0a0.555 0.555 0 0 1 0.562 0.562c0.002 0.309-0.25 0.561-0.562 0.562z m1.498 0c0.31-0.001 0.562-0.253 0.562-0.562 0-0.313-0.252-0.565-0.562-0.562A0.556 0.556 0 0 0 8.224 0.562c-0.002 0.309 0.25 0.561 0.562 0.562z m2.231 11.366c0.78-0.13 1.557-0.944 1.555-1.938v-7.254c0.002-1.023-0.86-1.963-2.028-1.962H5.537c-1.174-0.001-2.036 0.939-2.035 1.962v7.255c-0.001 0.994 0.776 1.808 1.555 1.938L2.72 16h1.351l1.669-2.459H10.333L12.01 16h1.344L11.017 12.49zM6.718 2.085c0-0.182 0.155-0.331 0.333-0.334h1.972c0.179 0.003 0.334 0.152 0.334 0.334v0.57a0.334 0.334 0 0 1-0.334 0.334H7.052c-0.187 0-0.333-0.153-0.334-0.334v-0.57zM5.488 11.432a0.895 0.895 0 0 1-0.887-0.896c-0.001-0.491 0.398-0.89 0.887-0.887a0.891 0.891 0 0 1 0.896 0.887c-0.002 0.493-0.402 0.892-0.896 0.896z m0.114-4.714c-0.561-0.003-1.019-0.387-1.018-1.018v-1.303c0.004-0.544 0.355-1.017 1.018-1.018h4.869c0.664 0.001 1.015 0.474 1.018 1.018v1.302c0.002 0.631-0.456 1.015-1.018 1.018h-4.869zM9.674 10.536c-0.002-0.491 0.397-0.89 0.887-0.887a0.891 0.891 0 0 1 0.896 0.887c-0.003 0.493-0.402 0.892-0.896 0.896a0.894 0.894 0 0 1-0.887-0.895z"></path></g><g id="SvgjsG4616"><path d="M3.236 14.219c1.457 0 2.639-1.182 2.639-2.641 0-1.454-1.182-2.637-2.639-2.637-1.453 0-2.636 1.182-2.636 2.638 0 1.459 1.182 2.641 2.636 2.642zM0 11.578c0-1.787 1.452-3.234 3.236-3.234 1.789 0 3.239 1.446 3.239 3.234 0 1.79-1.45 3.237-3.239 3.237C1.452 14.815 0 13.367 0 11.578z m12.764 2.671c1.453 0 2.636-1.18 2.636-2.639 0-1.457-1.182-2.637-2.636-2.637-1.457 0-2.639 1.181-2.639 2.638 0 1.459 1.182 2.64 2.639 2.64zM9.525 11.61c0-1.789 1.452-3.236 3.239-3.236 1.784 0 3.236 1.446 3.236 3.236s-1.452 3.237-3.236 3.237c-1.788 0-3.239-1.448-3.239-3.237z m0.009-7.898c0.672 0 1.218-0.542 1.218-1.214S10.206 1.28 9.534 1.28s-1.218 0.546-1.218 1.218 0.546 1.214 1.218 1.214z"></path><path d="M9.584 6.666c-0.176 0.004-0.366-0.084-0.506-0.306l-0.791-1.235-1.631 1.614 1.513 0.795c0.622 0.298 0.528 0.844 0.528 0.844v3.424c0 0.388-0.312 0.704-0.701 0.704s-0.701-0.316-0.7-0.704V9.062l-2.623-1.457a1.02 1.02 0 0 1-0.525-0.889 1.003 1.003 0 0 1 0.262-0.683l2.573-2.577c0.32-0.362 0.765-0.304 0.765-0.304 0.539 0 0.823 0.47 0.823 0.47l1.337 2.095 2.03-0.004c0.729 0 0.729 0.952 0 0.952h-2.353z"></path></g><g id="SvgjsG4617"><use xlink:href="#SvgjsG4613" transform="translate(0, 0) scale(2.9)" fill="rgba(79, 160, 149, 1)"></use><use xlink:href="#SvgjsG4614" transform="translate(0, 75.39999999999999) scale(2.9)" fill="rgba(79, 160, 149, 1)"></use><use xlink:href="#SvgjsG4615" transform="translate(0, 150.79999999999998) scale(2.9)" fill="rgba(79, 160, 149, 1)"></use><use xlink:href="#SvgjsG4616" transform="translate(0, 226.2) scale(2.9)" fill="rgba(79, 160, 149, 1)"></use><use xlink:href="#SvgjsG4613" transform="translate(0, 301.59999999999997) scale(2.9)" fill="rgba(79, 160, 149, 1)"></use><use xlink:href="#SvgjsG4614" transform="translate(0, 376.99999999999994) scale(2.9)" fill="rgba(79, 160, 149, 1)"></use><use xlink:href="#SvgjsG4615" transform="translate(0, 452.4) scale(2.9)" fill="rgba(79, 160, 149, 1)"></use><use xlink:href="#SvgjsG4616" transform="translate(0, 527.8) scale(2.9)" fill="rgba(79, 160, 149, 1)"></use><use xlink:href="#SvgjsG4613" transform="translate(0, 603.1999999999999) scale(2.9)" fill="rgba(79, 160, 149, 1)"></use><use xlink:href="#SvgjsG4614" transform="translate(0, 678.5999999999999) scale(2.9)" fill="rgba(79, 160, 149, 1)"></use><use xlink:href="#SvgjsG4614" transform="translate(75.39999999999999, 0) scale(2.9)" fill="rgba(79, 160, 149, 1)"></use><use xlink:href="#SvgjsG4615" transform="translate(75.39999999999999, 75.39999999999999) scale(2.9)" fill="rgba(79, 160, 149, 1)"></use><use xlink:href="#SvgjsG4616" transform="translate(75.39999999999999, 150.79999999999998) scale(2.9)" fill="rgba(79, 160, 149, 1)"></use><use xlink:href="#SvgjsG4613" transform="translate(75.39999999999999, 226.2) scale(2.9)" fill="rgba(79, 160, 149, 1)"></use><use xlink:href="#SvgjsG4614" transform="translate(75.39999999999999, 301.59999999999997) scale(2.9)" fill="rgba(79, 160, 149, 1)"></use><use xlink:href="#SvgjsG4615" transform="translate(75.39999999999999, 376.99999999999994) scale(2.9)" fill="rgba(79, 160, 149, 1)"></use><use xlink:href="#SvgjsG4616" transform="translate(75.39999999999999, 452.4) scale(2.9)" fill="rgba(79, 160, 149, 1)"></use><use xlink:href="#SvgjsG4613" transform="translate(75.39999999999999, 527.8) scale(2.9)" fill="rgba(79, 160, 149, 1)"></use><use xlink:href="#SvgjsG4614" transform="translate(75.39999999999999, 603.1999999999999) scale(2.9)" fill="rgba(79, 160, 149, 1)"></use><use xlink:href="#SvgjsG4615" transform="translate(75.39999999999999, 678.5999999999999) scale(2.9)" fill="rgba(79, 160, 149, 1)"></use><use xlink:href="#SvgjsG4615" transform="translate(150.79999999999998, 0) scale(2.9)" fill="rgba(79, 160, 149, 1)"></use><use xlink:href="#SvgjsG4616" transform="translate(150.79999999999998, 75.39999999999999) scale(2.9)" fill="rgba(79, 160, 149, 1)"></use><use xlink:href="#SvgjsG4613" transform="translate(150.79999999999998, 150.79999999999998) scale(2.9)" fill="rgba(79, 160, 149, 1)"></use><use xlink:href="#SvgjsG4614" transform="translate(150.79999999999998, 226.2) scale(2.9)" fill="rgba(79, 160, 149, 1)"></use><use xlink:href="#SvgjsG4615" transform="translate(150.79999999999998, 301.59999999999997) scale(2.9)" fill="rgba(79, 160, 149, 1)"></use><use xlink:href="#SvgjsG4616" transform="translate(150.79999999999998, 376.99999999999994) scale(2.9)" fill="rgba(79, 160, 149, 1)"></use><use xlink:href="#SvgjsG4613" transform="translate(150.79999999999998, 452.4) scale(2.9)" fill="rgba(79, 160, 149, 1)"></use><use xlink:href="#SvgjsG4614" transform="translate(150.79999999999998, 527.8) scale(2.9)" fill="rgba(79, 160, 149, 1)"></use><use xlink:href="#SvgjsG4615" transform="translate(150.79999999999998, 603.1999999999999) scale(2.9)" fill="rgba(79, 160, 149, 1)"></use><use xlink:href="#SvgjsG4616" transform="translate(150.79999999999998, 678.5999999999999) scale(2.9)" fill="rgba(79, 160, 149, 1)"></use><use xlink:href="#SvgjsG4616" transform="translate(226.2, 0) scale(2.9)" fill="rgba(79, 160, 149, 1)"></use><use xlink:href="#SvgjsG4613" transform="translate(226.2, 75.39999999999999) scale(2.9)" fill="rgba(79, 160, 149, 1)"></use><use xlink:href="#SvgjsG4614" transform="translate(226.2, 150.79999999999998) scale(2.9)" fill="rgba(79, 160, 149, 1)"></use><use xlink:href="#SvgjsG4615" transform="translate(226.2, 226.2) scale(2.9)" fill="rgba(79, 160, 149, 1)"></use><use xlink:href="#SvgjsG4616" transform="translate(226.2, 301.59999999999997) scale(2.9)" fill="rgba(79, 160, 149, 1)"></use><use xlink:href="#SvgjsG4613" transform="translate(226.2, 376.99999999999994) scale(2.9)" fill="rgba(79, 160, 149, 1)"></use><use xlink:href="#SvgjsG4614" transform="translate(226.2, 452.4) scale(2.9)" fill="rgba(79, 160, 149, 1)"></use><use xlink:href="#SvgjsG4615" transform="translate(226.2, 527.8) scale(2.9)" fill="rgba(79, 160, 149, 1)"></use><use xlink:href="#SvgjsG4616" transform="translate(226.2, 603.1999999999999) scale(2.9)" fill="rgba(79, 160, 149, 1)"></use><use xlink:href="#SvgjsG4613" transform="translate(226.2, 678.5999999999999) scale(2.9)" fill="rgba(79, 160, 149, 1)"></use><use xlink:href="#SvgjsG4613" transform="translate(301.59999999999997, 0) scale(2.9)" fill="rgba(79, 160, 149, 1)"></use><use xlink:href="#SvgjsG4614" transform="translate(301.59999999999997, 75.39999999999999) scale(2.9)" fill="rgba(79, 160, 149, 1)"></use><use xlink:href="#SvgjsG4615" transform="translate(301.59999999999997, 150.79999999999998) scale(2.9)" fill="rgba(79, 160, 149, 1)"></use><use xlink:href="#SvgjsG4616" transform="translate(301.59999999999997, 226.2) scale(2.9)" fill="rgba(79, 160, 149, 1)"></use><use xlink:href="#SvgjsG4613" transform="translate(301.59999999999997, 301.59999999999997) scale(2.9)" fill="rgba(79, 160, 149, 1)"></use><use xlink:href="#SvgjsG4614" transform="translate(301.59999999999997, 376.99999999999994) scale(2.9)" fill="rgba(79, 160, 149, 1)"></use><use xlink:href="#SvgjsG4615" transform="translate(301.59999999999997, 452.4) scale(2.9)" fill="rgba(79, 160, 149, 1)"></use><use xlink:href="#SvgjsG4616" transform="translate(301.59999999999997, 527.8) scale(2.9)" fill="rgba(79, 160, 149, 1)"></use><use xlink:href="#SvgjsG4613" transform="translate(301.59999999999997, 603.1999999999999) scale(2.9)" fill="rgba(79, 160, 149, 1)"></use><use xlink:href="#SvgjsG4614" transform="translate(301.59999999999997, 678.5999999999999) scale(2.9)" fill="rgba(79, 160, 149, 1)"></use><use xlink:href="#SvgjsG4614" transform="translate(376.99999999999994, 0) scale(2.9)" fill="rgba(79, 160, 149, 1)"></use><use xlink:href="#SvgjsG4615" transform="translate(376.99999999999994, 75.39999999999999) scale(2.9)" fill="rgba(79, 160, 149, 1)"></use><use xlink:href="#SvgjsG4616" transform="translate(376.99999999999994, 150.79999999999998) scale(2.9)" fill="rgba(79, 160, 149, 1)"></use><use xlink:href="#SvgjsG4613" transform="translate(376.99999999999994, 226.2) scale(2.9)" fill="rgba(79, 160, 149, 1)"></use><use xlink:href="#SvgjsG4614" transform="translate(376.99999999999994, 301.59999999999997) scale(2.9)" fill="rgba(79, 160, 149, 1)"></use><use xlink:href="#SvgjsG4615" transform="translate(376.99999999999994, 376.99999999999994) scale(2.9)" fill="rgba(79, 160, 149, 1)"></use><use xlink:href="#SvgjsG4616" transform="translate(376.99999999999994, 452.4) scale(2.9)" fill="rgba(79, 160, 149, 1)"></use><use xlink:href="#SvgjsG4613" transform="translate(376.99999999999994, 527.8) scale(2.9)" fill="rgba(79, 160, 149, 1)"></use><use xlink:href="#SvgjsG4614" transform="translate(376.99999999999994, 603.1999999999999) scale(2.9)" fill="rgba(79, 160, 149, 1)"></use><use xlink:href="#SvgjsG4615" transform="translate(376.99999999999994, 678.5999999999999) scale(2.9)" fill="rgba(79, 160, 149, 1)"></use><use xlink:href="#SvgjsG4615" transform="translate(452.4, 0) scale(2.9)" fill="rgba(79, 160, 149, 1)"></use><use xlink:href="#SvgjsG4616" transform="translate(452.4, 75.39999999999999) scale(2.9)" fill="rgba(79, 160, 149, 1)"></use><use xlink:href="#SvgjsG4613" transform="translate(452.4, 150.79999999999998) scale(2.9)" fill="rgba(79, 160, 149, 1)"></use><use xlink:href="#SvgjsG4614" transform="translate(452.4, 226.2) scale(2.9)" fill="rgba(79, 160, 149, 1)"></use><use xlink:href="#SvgjsG4615" transform="translate(452.4, 301.59999999999997) scale(2.9)" fill="rgba(79, 160, 149, 1)"></use><use xlink:href="#SvgjsG4616" transform="translate(452.4, 376.99999999999994) scale(2.9)" fill="rgba(79, 160, 149, 1)"></use><use xlink:href="#SvgjsG4613" transform="translate(452.4, 452.4) scale(2.9)" fill="rgba(79, 160, 149, 1)"></use><use xlink:href="#SvgjsG4614" transform="translate(452.4, 527.8) scale(2.9)" fill="rgba(79, 160, 149, 1)"></use><use xlink:href="#SvgjsG4615" transform="translate(452.4, 603.1999999999999) scale(2.9)" fill="rgba(79, 160, 149, 1)"></use><use xlink:href="#SvgjsG4616" transform="translate(452.4, 678.5999999999999) scale(2.9)" fill="rgba(79, 160, 149, 1)"></use><use xlink:href="#SvgjsG4616" transform="translate(527.8, 0) scale(2.9)" fill="rgba(79, 160, 149, 1)"></use><use xlink:href="#SvgjsG4613" transform="translate(527.8, 75.39999999999999) scale(2.9)" fill="rgba(79, 160, 149, 1)"></use><use xlink:href="#SvgjsG4614" transform="translate(527.8, 150.79999999999998) scale(2.9)" fill="rgba(79, 160, 149, 1)"></use><use xlink:href="#SvgjsG4615" transform="translate(527.8, 226.2) scale(2.9)" fill="rgba(79, 160, 149, 1)"></use><use xlink:href="#SvgjsG4616" transform="translate(527.8, 301.59999999999997) scale(2.9)" fill="rgba(79, 160, 149, 1)"></use><use xlink:href="#SvgjsG4613" transform="translate(527.8, 376.99999999999994) scale(2.9)" fill="rgba(79, 160, 149, 1)"></use><use xlink:href="#SvgjsG4614" transform="translate(527.8, 452.4) scale(2.9)" fill="rgba(79, 160, 149, 1)"></use><use xlink:href="#SvgjsG4615" transform="translate(527.8, 527.8) scale(2.9)" fill="rgba(79, 160, 149, 1)"></use><use xlink:href="#SvgjsG4616" transform="translate(527.8, 603.1999999999999) scale(2.9)" fill="rgba(79, 160, 149, 1)"></use><use xlink:href="#SvgjsG4613" transform="translate(527.8, 678.5999999999999) scale(2.9)" fill="rgba(79, 160, 149, 1)"></use><use xlink:href="#SvgjsG4613" transform="translate(603.1999999999999, 0) scale(2.9)" fill="rgba(79, 160, 149, 1)"></use><use xlink:href="#SvgjsG4614" transform="translate(603.1999999999999, 75.39999999999999) scale(2.9)" fill="rgba(79, 160, 149, 1)"></use><use xlink:href="#SvgjsG4615" transform="translate(603.1999999999999, 150.79999999999998) scale(2.9)" fill="rgba(79, 160, 149, 1)"></use><use xlink:href="#SvgjsG4616" transform="translate(603.1999999999999, 226.2) scale(2.9)" fill="rgba(79, 160, 149, 1)"></use><use xlink:href="#SvgjsG4613" transform="translate(603.1999999999999, 301.59999999999997) scale(2.9)" fill="rgba(79, 160, 149, 1)"></use><use xlink:href="#SvgjsG4614" transform="translate(603.1999999999999, 376.99999999999994) scale(2.9)" fill="rgba(79, 160, 149, 1)"></use><use xlink:href="#SvgjsG4615" transform="translate(603.1999999999999, 452.4) scale(2.9)" fill="rgba(79, 160, 149, 1)"></use><use xlink:href="#SvgjsG4616" transform="translate(603.1999999999999, 527.8) scale(2.9)" fill="rgba(79, 160, 149, 1)"></use><use xlink:href="#SvgjsG4613" transform="translate(603.1999999999999, 603.1999999999999) scale(2.9)" fill="rgba(79, 160, 149, 1)"></use><use xlink:href="#SvgjsG4614" transform="translate(603.1999999999999, 678.5999999999999) scale(2.9)" fill="rgba(79, 160, 149, 1)"></use><use xlink:href="#SvgjsG4614" transform="translate(678.5999999999999, 0) scale(2.9)" fill="rgba(79, 160, 149, 1)"></use><use xlink:href="#SvgjsG4615" transform="translate(678.5999999999999, 75.39999999999999) scale(2.9)" fill="rgba(79, 160, 149, 1)"></use><use xlink:href="#SvgjsG4616" transform="translate(678.5999999999999, 150.79999999999998) scale(2.9)" fill="rgba(79, 160, 149, 1)"></use><use xlink:href="#SvgjsG4613" transform="translate(678.5999999999999, 226.2) scale(2.9)" fill="rgba(79, 160, 149, 1)"></use><use xlink:href="#SvgjsG4614" transform="translate(678.5999999999999, 301.59999999999997) scale(2.9)" fill="rgba(79, 160, 149, 1)"></use><use xlink:href="#SvgjsG4615" transform="translate(678.5999999999999, 376.99999999999994) scale(2.9)" fill="rgba(79, 160, 149, 1)"></use><use xlink:href="#SvgjsG4616" transform="translate(678.5999999999999, 452.4) scale(2.9)" fill="rgba(79, 160, 149, 1)"></use><use xlink:href="#SvgjsG4613" transform="translate(678.5999999999999, 527.8) scale(2.9)" fill="rgba(79, 160, 149, 1)"></use><use xlink:href="#SvgjsG4614" transform="translate(678.5999999999999, 603.1999999999999) scale(2.9)" fill="rgba(79, 160, 149, 1)"></use><use xlink:href="#SvgjsG4615" transform="translate(678.5999999999999, 678.5999999999999) scale(2.9)" fill="rgba(79, 160, 149, 1)"></use></g></defs></svg>