<svg xmlns="http://www.w3.org/2000/svg" version="1.1" xmlns:xlink="http://www.w3.org/1999/xlink" xmlns:svgjs="http://svgjs.com/svgjs" width="1500" height="1500" preserveAspectRatio="none" viewBox="0 0 1500 1500"><g mask="url(&quot;#SvgjsMask22519&quot;)" fill="none"><path d="M929.9200000000001 615 L525.77 716.9100000000001L1015.3582462367451 953.468246236745z" stroke="rgba(79, 160, 149, 1)" stroke-width="1.65"></path><rect width="876" height="876" clip-path="url(&quot;#SvgjsClipPath22520&quot;)" x="871.09" y="-382.42" fill="url(#SvgjsPattern22521)" transform="rotate(312.81, 1309.09, 55.58)"></rect><path d="M1120.08 1441.31a5.6 5.6 0 1 0 11.17 0.77 5.6 5.6 0 1 0-11.17-0.77zM1136.04 1442.41a5.6 5.6 0 1 0 11.18 0.77 5.6 5.6 0 1 0-11.18-0.77zM1152.01 1443.51a5.6 5.6 0 1 0 11.17 0.77 5.6 5.6 0 1 0-11.17-0.77zM1167.97 1444.61a5.6 5.6 0 1 0 11.17 0.77 5.6 5.6 0 1 0-11.17-0.77zM1087.06 1455.08a5.6 5.6 0 1 0 11.17 0.77 5.6 5.6 0 1 0-11.17-0.77zM1103.02 1456.18a5.6 5.6 0 1 0 11.17 0.76 5.6 5.6 0 1 0-11.17-0.76zM1118.98 1457.27a5.6 5.6 0 1 0 11.17 0.77 5.6 5.6 0 1 0-11.17-0.77zM1134.94 1458.37a5.6 5.6 0 1 0 11.18 0.77 5.6 5.6 0 1 0-11.18-0.77z" stroke="rgba(79, 160, 149, 1)" stroke-width="1"></path><path d="M1627.1599999999999 1642.21 L1876.3 1490.3400000000001L1952.3942842653755 1766.9392842653756z" fill="rgba(79, 160, 149, 1)"></path><rect width="948" height="948" clip-path="url(&quot;#SvgjsClipPath22522&quot;)" x="-63.29" y="-217.4" fill="url(#SvgjsPattern22523)" transform="rotate(72.53, 410.71, 256.6)"></rect></g><defs><mask id="SvgjsMask22519"><rect width="1500" height="1500" fill="#ffffff"></rect></mask><pattern x="0" y="0" width="6" height="6" patternUnits="userSpaceOnUse" id="SvgjsPattern22521"><path d="M3 1L3 5M1 3L5 3" stroke="rgba(21, 52, 98, 1)" fill="none" stroke-width="1"></path></pattern><clipPath id="SvgjsClipPath22520"><circle r="219" cx="1309.09" cy="55.58"></circle></clipPath><pattern x="0" y="0" width="6" height="6" patternUnits="userSpaceOnUse" id="SvgjsPattern22523"><path d="M3 1L3 5M1 3L5 3" stroke="rgba(79, 160, 149, 1)" fill="none" stroke-width="1"></path></pattern><clipPath id="SvgjsClipPath22522"><circle r="237" cx="410.71" cy="256.6"></circle></clipPath></defs></svg>