<svg xmlns="http://www.w3.org/2000/svg" version="1.1" xmlns:xlink="http://www.w3.org/1999/xlink" xmlns:svgjs="http://svgjs.com/svgjs" width="1440" height="1000" preserveAspectRatio="none" viewBox="0 0 1440 1000"><g mask="url(&quot;#SvgjsMask8351&quot;)" fill="none"><circle r="85.12921143638411" cx="561.67" cy="229.17" fill="rgba(186, 209, 194, 1)"></circle><rect width="60" height="60" clip-path="url(&quot;#SvgjsClipPath8352&quot;)" x="1126.12" y="262.72" fill="url(#SvgjsPattern8353)" transform="rotate(100.44, 1156.12, 292.72)"></rect><path d="M153.42 903.27L162.15 912.63 154.93 923.21 163.66 932.58 156.44 943.15 165.17 952.52 157.95 963.1M145.44 903.87L154.17 913.24 146.95 923.81 155.68 933.18 148.46 943.76 157.19 953.12 149.97 963.7M137.46 904.48L146.19 913.84 138.97 924.42 147.7 933.79 140.48 944.36 149.21 953.73 141.99 964.3" stroke="rgba(79, 160, 149, 1)" stroke-width="1" stroke-dasharray="2, 2"></path><rect width="143.64000000000001" height="143.64000000000001" clip-path="url(&quot;#SvgjsClipPath8354&quot;)" x="190.53" y="-1.53" fill="url(#SvgjsPattern8355)" transform="rotate(290.19, 262.35, 70.29)"></rect><path d="M200.94 312.42a5.6 5.6 0 1 0 3.6-10.6 5.6 5.6 0 1 0-3.6 10.6zM206.09 297.27a5.6 5.6 0 1 0 3.6-10.6 5.6 5.6 0 1 0-3.6 10.6zM211.23 282.12a5.6 5.6 0 1 0 3.6-10.6 5.6 5.6 0 1 0-3.6 10.6zM216.38 266.97a5.6 5.6 0 1 0 3.6-10.6 5.6 5.6 0 1 0-3.6 10.6zM205.8 347.87a5.6 5.6 0 1 0 3.6-10.61 5.6 5.6 0 1 0-3.6 10.61zM210.94 332.72a5.6 5.6 0 1 0 3.61-10.61 5.6 5.6 0 1 0-3.61 10.61zM216.09 317.57a5.6 5.6 0 1 0 3.6-10.61 5.6 5.6 0 1 0-3.6 10.61zM221.24 302.42a5.6 5.6 0 1 0 3.6-10.61 5.6 5.6 0 1 0-3.6 10.61zM210.66 383.31a5.6 5.6 0 1 0 3.6-10.6 5.6 5.6 0 1 0-3.6 10.6zM215.8 368.16a5.6 5.6 0 1 0 3.61-10.6 5.6 5.6 0 1 0-3.61 10.6zM220.95 353.01a5.6 5.6 0 1 0 3.6-10.6 5.6 5.6 0 1 0-3.6 10.6zM226.09 337.86a5.6 5.6 0 1 0 3.61-10.6 5.6 5.6 0 1 0-3.61 10.6z" fill="rgba(79, 160, 149, 1)"></path><rect width="673" height="673" clip-path="url(&quot;#SvgjsClipPath8356&quot;)" x="604.64" y="-314.85" fill="url(#SvgjsPattern8357)" transform="rotate(262.81, 941.14, 21.65)"></rect><path d="M1284.36 1079.72 L1125.84 884.5200000000001L1095.7370071911168 1091.482992808883z" stroke="rgba(186, 209, 194, 1)" stroke-width="2.37" stroke-dasharray="3, 2"></path></g><defs><mask id="SvgjsMask8351"><rect width="1440" height="1000" fill="#ffffff"></rect></mask><pattern x="0" y="0" width="6" height="6" patternUnits="userSpaceOnUse" id="SvgjsPattern8353"><path d="M0 6L3 0L6 6" stroke="rgba(79, 160, 149, 1)" fill="none"></path></pattern><clipPath id="SvgjsClipPath8352"><circle r="15" cx="1156.12" cy="292.72"></circle></clipPath><pattern x="0" y="0" width="7.98" height="7.98" patternUnits="userSpaceOnUse" id="SvgjsPattern8355"><path d="M0 7.98L3.99 0L7.98 7.98" stroke="rgba(79, 160, 149, 1)" fill="none"></path></pattern><clipPath id="SvgjsClipPath8354"><circle r="35.910000000000004" cx="262.35" cy="70.29"></circle></clipPath><pattern x="0" y="0" width="13.46" height="13.46" patternUnits="userSpaceOnUse" id="SvgjsPattern8357"><path d="M0 13.46L6.73 0L13.46 13.46" stroke="rgba(21, 52, 98, 1)" fill="none"></path></pattern><clipPath id="SvgjsClipPath8356"><circle r="168.25" cx="941.14" cy="21.65"></circle></clipPath></defs></svg>