<svg xmlns="http://www.w3.org/2000/svg" version="1.1" xmlns:xlink="http://www.w3.org/1999/xlink" xmlns:svgjs="http://svgjs.com/svgjs" width="1440" height="1000" preserveAspectRatio="none" viewBox="0 0 1440 1000"><g mask="url(&quot;#SvgjsMask1297&quot;)" fill="none"><rect width="576" height="576" clip-path="url(&quot;#SvgjsClipPath1298&quot;)" x="773.26" y="461.15" fill="url(#SvgjsPattern1299)" transform="rotate(325.39, 1061.26, 749.15)"></rect><rect width="240" height="240" clip-path="url(&quot;#SvgjsClipPath1300&quot;)" x="-96.11" y="90.04" fill="url(#SvgjsPattern1301)" transform="rotate(24.85, 23.89, 210.04)"></rect><path d="M465.9 52.42a5.6 5.6 0 1 0 5.85-9.55 5.6 5.6 0 1 0-5.85 9.55zM474.26 38.78a5.6 5.6 0 1 0 5.84-9.56 5.6 5.6 0 1 0-5.84 9.56zM482.61 25.13a5.6 5.6 0 1 0 5.85-9.55 5.6 5.6 0 1 0-5.85 9.55zM490.97 11.49a5.6 5.6 0 1 0 5.84-9.56 5.6 5.6 0 1 0-5.84 9.56zM462.83 88.07a5.6 5.6 0 1 0 5.85-9.56 5.6 5.6 0 1 0-5.85 9.56zM471.19 74.42a5.6 5.6 0 1 0 5.85-9.55 5.6 5.6 0 1 0-5.85 9.55zM479.55 60.78a5.6 5.6 0 1 0 5.84-9.56 5.6 5.6 0 1 0-5.84 9.56zM487.9 47.13a5.6 5.6 0 1 0 5.85-9.55 5.6 5.6 0 1 0-5.85 9.55z" fill="rgba(186, 209, 194, 1)"></path><path d="M797.81 808.03L787.19 800.86 791.86 788.93 781.25 781.76 785.91 769.84 775.3 762.67 779.96 750.74M805.44 805.65L794.83 798.48 799.5 786.55 788.89 779.39 793.55 767.46 782.94 760.29 787.6 748.36M813.08 803.27L802.47 796.1 807.14 784.18 796.52 777.01 801.19 765.08 790.58 757.91 795.24 745.98" stroke="rgba(21, 52, 98, 1)" stroke-width="1"></path><path d="M1111.63 878.86a5.6 5.6 0 1 0 5.69-9.65 5.6 5.6 0 1 0-5.69 9.65zM1119.76 865.08a5.6 5.6 0 1 0 5.68-9.65 5.6 5.6 0 1 0-5.68 9.65zM1127.88 851.29a5.6 5.6 0 1 0 5.68-9.65 5.6 5.6 0 1 0-5.68 9.65zM1136 837.51a5.6 5.6 0 1 0 5.68-9.65 5.6 5.6 0 1 0-5.68 9.65zM1109.18 914.56a5.6 5.6 0 1 0 5.68-9.65 5.6 5.6 0 1 0-5.68 9.65zM1117.3 900.77a5.6 5.6 0 1 0 5.68-9.65 5.6 5.6 0 1 0-5.68 9.65zM1125.42 886.99a5.6 5.6 0 1 0 5.69-9.65 5.6 5.6 0 1 0-5.69 9.65zM1133.54 873.2a5.6 5.6 0 1 0 5.69-9.65 5.6 5.6 0 1 0-5.69 9.65z" fill="rgba(79, 160, 149, 1)"></path><path d="M1242.01 303.74 L1114.1200000000001 231.72000000000003L1083.263628316232 362.53137168376816z" stroke="rgba(21, 52, 98, 1)" stroke-width="1.94" stroke-dasharray="3, 3"></path><rect width="636" height="636" clip-path="url(&quot;#SvgjsClipPath1302&quot;)" x="95.08" y="-69.91" fill="url(#SvgjsPattern1303)" transform="rotate(50.8, 413.08, 248.09)"></rect></g><defs><mask id="SvgjsMask1297"><rect width="1440" height="1000" fill="#ffffff"></rect></mask><pattern x="0" y="0" width="576" height="6" patternUnits="userSpaceOnUse" id="SvgjsPattern1299"><rect width="576" height="3" x="0" y="0" fill="rgba(186, 209, 194, 1)"></rect><rect width="576" height="3" x="0" y="3" fill="rgba(0, 0, 0, 0)"></rect></pattern><clipPath id="SvgjsClipPath1298"><circle r="144" cx="1061.26" cy="749.15"></circle></clipPath><pattern x="0" y="0" width="6" height="6" patternUnits="userSpaceOnUse" id="SvgjsPattern1301"><path d="M0 6L3 0L6 6" stroke="rgba(186, 209, 194, 1)" fill="none"></path></pattern><clipPath id="SvgjsClipPath1300"><circle r="60" cx="23.89" cy="210.04"></circle></clipPath><pattern x="0" y="0" width="636" height="6" patternUnits="userSpaceOnUse" id="SvgjsPattern1303"><rect width="636" height="3" x="0" y="0" fill="rgba(21, 52, 98, 1)"></rect><rect width="636" height="3" x="0" y="3" fill="rgba(0, 0, 0, 0)"></rect></pattern><clipPath id="SvgjsClipPath1302"><circle r="159" cx="413.08" cy="248.09"></circle></clipPath></defs></svg>