<svg xmlns="http://www.w3.org/2000/svg" version="1.1" xmlns:xlink="http://www.w3.org/1999/xlink" xmlns:svgjs="http://svgjs.com/svgjs" width="1500" height="1500" preserveAspectRatio="none" viewBox="0 0 1500 1500"><g mask="url(&quot;#SvgjsMask22672&quot;)" fill="none"><path d="M494.17 1212.66L481.82 1216.02 475.82 1204.71 463.47 1208.07 457.47 1196.75 445.12 1200.12 439.12 1188.8" stroke="rgba(186, 209, 194, 1)" stroke-width="1" stroke-dasharray="2, 2"></path><path d="M1307.37 1244.03a5.6 5.6 0 1 0-5.47 9.78 5.6 5.6 0 1 0 5.47-9.78zM1299.56 1258a5.6 5.6 0 1 0-5.46 9.77 5.6 5.6 0 1 0 5.46-9.77zM1291.76 1271.97a5.6 5.6 0 1 0-5.46 9.77 5.6 5.6 0 1 0 5.46-9.77zM1283.96 1285.93a5.6 5.6 0 1 0-5.47 9.78 5.6 5.6 0 1 0 5.47-9.78z" stroke="rgba(186, 209, 194, 1)" stroke-width="1.63" stroke-dasharray="2, 2"></path><rect width="600" height="600" clip-path="url(&quot;#SvgjsClipPath22673&quot;)" x="72.25" y="786.46" fill="url(#SvgjsPattern22674)" transform="rotate(189.55, 372.25, 1086.46)"></rect><path d="M201.79 200.71a5.6 5.6 0 1 0-8.1 7.74 5.6 5.6 0 1 0 8.1-7.74zM190.22 211.76a5.6 5.6 0 1 0-8.1 7.74 5.6 5.6 0 1 0 8.1-7.74zM178.65 222.82a5.6 5.6 0 1 0-8.1 7.73 5.6 5.6 0 1 0 8.1-7.73zM167.08 233.87a5.6 5.6 0 1 0-8.1 7.73 5.6 5.6 0 1 0 8.1-7.73z" fill="rgba(21, 52, 98, 1)"></path><path d="M207.73000000000002 668.6700000000001 L403.65999999999997 402.05L533.0933255450932 762.7583255450933z" fill="rgba(79, 160, 149, 1)"></path></g><defs><mask id="SvgjsMask22672"><rect width="1500" height="1500" fill="#ffffff"></rect></mask><pattern x="0" y="0" width="600" height="6" patternUnits="userSpaceOnUse" id="SvgjsPattern22674"><rect width="600" height="3" x="0" y="0" fill="rgba(186, 209, 194, 1)"></rect><rect width="600" height="3" x="0" y="3" fill="rgba(0, 0, 0, 0)"></rect></pattern><clipPath id="SvgjsClipPath22673"><circle r="150" cx="372.25" cy="1086.46"></circle></clipPath></defs></svg>