<svg xmlns="http://www.w3.org/2000/svg" version="1.1" xmlns:xlink="http://www.w3.org/1999/xlink" xmlns:svgjs="http://svgjs.com/svgjs" width="1500" height="1500" preserveAspectRatio="none" viewBox="0 0 1500 1500"><g mask="url(&quot;#SvgjsMask23046&quot;)" fill="none"><path d="M89.11 432.05L91.46 419.47 104.26 419 106.61 406.41 119.41 405.94 121.76 393.35 134.56 392.88M94.33 438.11L96.68 425.53 109.48 425.06 111.83 412.47 124.63 412 126.98 399.41 139.78 398.94M99.55 444.17L101.91 431.59 114.7 431.12 117.05 418.53 129.85 418.06 132.2 405.47 145 405" stroke="rgba(186, 209, 194, 1)" stroke-width="1"></path><circle r="125" cx="1069.16" cy="1383.03" stroke="rgba(186, 209, 194, 1)" stroke-width="2.76" stroke-dasharray="3, 2"></circle><circle r="125" cx="742.51" cy="1295.57" stroke="rgba(79, 160, 149, 1)" stroke-width="1" stroke-dasharray="3, 3"></circle><circle r="125" cx="174.32" cy="920.81" fill="rgba(21, 52, 98, 1)"></circle><path d="M62.91 551.4a5.6 5.6 0 1 0-9.76-5.49 5.6 5.6 0 1 0 9.76 5.49zM48.96 543.56a5.6 5.6 0 1 0-9.77-5.48 5.6 5.6 0 1 0 9.77 5.48zM35.01 535.73a5.6 5.6 0 1 0-9.77-5.49 5.6 5.6 0 1 0 9.77 5.49zM21.06 527.89a5.6 5.6 0 1 0-9.77-5.48 5.6 5.6 0 1 0 9.77 5.48z" fill="rgba(79, 160, 149, 1)"></path></g><defs><mask id="SvgjsMask23046"><rect width="1500" height="1500" fill="#ffffff"></rect></mask></defs></svg>